<mxfile host="app.diagrams.net" modified="2024-01-28T14:08:29.723Z" agent="Mozilla/5.0 (Windows NT 10.0; Win64; x64; rv:122.0) Gecko/20100101 Firefox/122.0" etag="RZE3xurzu9f3HZmU6-Za" version="23.0.2" type="device">
  <diagram name="Page-1" id="R7s6xCUYPcDgzsnBZri8">
    <mxGraphModel dx="1434" dy="705" grid="1" gridSize="10" guides="1" tooltips="1" connect="1" arrows="1" fold="1" page="1" pageScale="1" pageWidth="827" pageHeight="1169" math="0" shadow="0">
      <root>
        <mxCell id="0" />
        <mxCell id="1" parent="0" />
        <mxCell id="3-MmPayVCdj3wP6HPLZZ-1" value="&lt;div&gt;Usuario &lt;/div&gt;&lt;div&gt;&lt;br&gt;&lt;/div&gt;" style="shape=umlActor;verticalLabelPosition=bottom;verticalAlign=top;html=1;outlineConnect=0;" parent="1" vertex="1">
          <mxGeometry x="70" y="110" width="120" height="280" as="geometry" />
        </mxCell>
        <mxCell id="3-MmPayVCdj3wP6HPLZZ-3" value="" style="whiteSpace=wrap;html=1;aspect=fixed;" parent="1" vertex="1">
          <mxGeometry x="290" y="60" width="340" height="340" as="geometry" />
        </mxCell>
        <mxCell id="3-MmPayVCdj3wP6HPLZZ-4" value="Sistema" style="text;html=1;strokeColor=none;fillColor=none;align=center;verticalAlign=middle;whiteSpace=wrap;rounded=0;" parent="1" vertex="1">
          <mxGeometry x="430" y="80" width="60" height="30" as="geometry" />
        </mxCell>
        <mxCell id="3-MmPayVCdj3wP6HPLZZ-5" value="Consultar el manual de la aplicaciÃ³n" style="ellipse;whiteSpace=wrap;html=1;aspect=fixed;" parent="1" vertex="1">
          <mxGeometry x="350" y="140" width="100" height="100" as="geometry" />
        </mxCell>
        <mxCell id="3-MmPayVCdj3wP6HPLZZ-6" value="" style="endArrow=none;html=1;rounded=0;exitX=0.75;exitY=0.1;exitDx=0;exitDy=0;exitPerimeter=0;" parent="1" source="3-MmPayVCdj3wP6HPLZZ-1" target="3-MmPayVCdj3wP6HPLZZ-5" edge="1">
          <mxGeometry width="50" height="50" relative="1" as="geometry">
            <mxPoint x="390" y="370" as="sourcePoint" />
            <mxPoint x="440" y="320" as="targetPoint" />
          </mxGeometry>
        </mxCell>
        <mxCell id="yopXvmcnb07gWD0Y9lfg-1" value="Administrador" style="shape=umlActor;verticalLabelPosition=bottom;verticalAlign=top;html=1;outlineConnect=0;" parent="1" vertex="1">
          <mxGeometry x="680" y="90" width="120" height="280" as="geometry" />
        </mxCell>
        <mxCell id="yopXvmcnb07gWD0Y9lfg-2" value="Consultar el manual del administrador " style="ellipse;whiteSpace=wrap;html=1;aspect=fixed;" parent="1" vertex="1">
          <mxGeometry x="440" y="240" width="100" height="100" as="geometry" />
        </mxCell>
        <mxCell id="yopXvmcnb07gWD0Y9lfg-3" value="" style="endArrow=none;html=1;rounded=0;entryX=1;entryY=0;entryDx=0;entryDy=0;" parent="1" target="yopXvmcnb07gWD0Y9lfg-2" edge="1">
          <mxGeometry width="50" height="50" relative="1" as="geometry">
            <mxPoint x="710" y="120" as="sourcePoint" />
            <mxPoint x="1060" y="320" as="targetPoint" />
          </mxGeometry>
        </mxCell>
        <mxCell id="yopXvmcnb07gWD0Y9lfg-4" value="" style="endArrow=none;html=1;rounded=0;exitX=1;exitY=0;exitDx=0;exitDy=0;" parent="1" source="3-MmPayVCdj3wP6HPLZZ-5" edge="1">
          <mxGeometry width="50" height="50" relative="1" as="geometry">
            <mxPoint x="480" y="410" as="sourcePoint" />
            <mxPoint x="710" y="110" as="targetPoint" />
          </mxGeometry>
        </mxCell>
      </root>
    </mxGraphModel>
  </diagram>
</mxfile>
